<svg width="38" height="38" viewBox="0 0 38 38" fill="none" xmlns="http://www.w3.org/2000/svg">
<path d="M16.6151 28.5235C16.1191 28.5206 15.6294 28.413 15.1779 28.2076C14.6896 27.9924 14.2735 27.6412 13.9795 27.1959C13.6854 26.7506 13.5257 26.23 13.5195 25.6964V12.398C13.5257 11.8644 13.6854 11.3439 13.9795 10.8986C14.2735 10.4533 14.6896 10.102 15.1779 9.88681C15.7397 9.62142 16.3648 9.51921 16.982 9.59181C17.5991 9.66441 18.1834 9.90891 18.6683 10.2975L26.7232 16.9466C27.039 17.1981 27.2941 17.5176 27.4694 17.8813C27.6448 18.2449 27.7358 18.6435 27.7358 19.0472C27.7358 19.451 27.6448 19.8495 27.4694 20.2132C27.2941 20.5769 27.039 20.8963 26.7232 21.1478L18.6683 27.797C18.0877 28.2679 17.3627 28.5244 16.6151 28.5235V28.5235Z" fill="white"/>
</svg>
