<svg width="28" height="28" viewBox="0 0 28 28" fill="none" xmlns="http://www.w3.org/2000/svg">
<path d="M16.0777 22.1755C16.3435 22.176 16.601 22.0834 16.8056 21.9139C16.9208 21.8184 17.016 21.7012 17.0857 21.5688C17.1555 21.4365 17.1985 21.2917 17.2122 21.1428C17.226 20.9938 17.2102 20.8436 17.1658 20.7008C17.1214 20.5579 17.0492 20.4252 16.9535 20.3103L11.8584 14.2144L16.7715 8.10714C16.866 7.9908 16.9365 7.85695 16.9791 7.71326C17.0217 7.56958 17.0354 7.4189 17.0196 7.26988C17.0037 7.12086 16.9586 6.97645 16.8867 6.84493C16.8149 6.71342 16.7177 6.5974 16.6009 6.50355C16.4832 6.40001 16.3454 6.32192 16.1961 6.27416C16.0469 6.22641 15.8893 6.21003 15.7334 6.22605C15.5775 6.24207 15.4266 6.29014 15.2901 6.36725C15.1537 6.44436 15.0346 6.54884 14.9404 6.67414L9.44731 13.4979C9.28004 13.7014 9.18859 13.9567 9.18859 14.2201C9.18859 14.4835 9.28004 14.7388 9.44731 14.9423L15.1338 21.766C15.2479 21.9037 15.3928 22.0125 15.5568 22.0836C15.7208 22.1548 15.8993 22.1862 16.0777 22.1755Z" fill="#D0CFCF"/>
</svg>
