<svg aria-hidden="true" style="position: absolute; width: 0; height: 0; overflow: hidden;" version="1.1" xmlns="http://www.w3.org/2000/svg" xmlns:xlink="http://www.w3.org/1999/xlink">
<defs>
<symbol id="facebook" viewBox="0 0 32 32">
<path d="M0 0h32v32h-32v-32z"></path>
</symbol>
<symbol id="instagram" viewBox="0 0 32 32">
<path d="M0 0h32v32h-32v-32z"></path>
</symbol>
<symbol id="twitter" viewBox="0 0 32 32">
<path d="M0 0h32v32h-32v-32z"></path>
</symbol>
<symbol id="browzwearLogo" viewBox="0 0 61 32">
<path d="M0 0h61.37v32h-61.37v-32z"></path>
</symbol>
<symbol id="cloLogo" viewBox="0 0 62 32">
<path d="M0 0h61.6v32h-61.6v-32z"></path>
</symbol>
<symbol id="marvelousLogo" viewBox="0 0 62 32">
<path d="M0 0h61.63v32h-61.63v-32z"></path>
</symbol>
<symbol id="nvidiaLogo" viewBox="0 0 60 32">
<path d="M0 0h60.387v32h-60.387v-32z"></path>
</symbol>
<symbol id="unrealEngineLogo" viewBox="0 0 62 32">
<path d="M0 0h61.507v32h-61.507v-32z"></path>
</symbol>
<symbol id="features" viewBox="0 0 33 32">
<path stroke-linejoin="round" stroke-linecap="butt" stroke-miterlimit="4" stroke-width="1.0159" d="M25.787 2.891h-19.067c-1.974 0-3.575 1.601-3.575 3.575v19.067c0 1.974 1.601 3.575 3.575 3.575h19.067c1.974 0 3.575-1.601 3.575-3.575v-19.067c0-1.974-1.601-3.575-3.575-3.575z"></path>
<path stroke-linejoin="round" stroke-linecap="butt" stroke-miterlimit="4" stroke-width="1.0159" d="M23.404 7.658h-14.3c-0.658 0-1.192 0.534-1.192 1.192v14.3c0 0.658 0.534 1.192 1.192 1.192h14.3c0.658 0 1.192-0.534 1.192-1.192v-14.3c0-0.658-0.534-1.192-1.192-1.192z"></path>
<path stroke-linejoin="round" stroke-linecap="round" stroke-miterlimit="4" stroke-width="1.0159" d="M16.254 2.891v-2.383M22.212 2.891v-2.383M10.295 2.891v-2.383M16.254 31.492v-2.383M22.212 31.492v-2.383M10.295 31.492v-2.383M29.363 16h2.383M29.363 21.959h2.383M29.363 10.041h2.383M0.762 16h2.383M0.762 21.959h2.383M0.762 10.041h2.383"></path>
</symbol>
<symbol id="closet" viewBox="0 0 32 32">
<path d="M0 0h32v32h-32v-32z"></path>
</symbol>
<symbol id="height" viewBox="0 0 32 32">
<path d="M0 0h32v32h-32v-32z"></path>
</symbol>
<symbol id="shirt" viewBox="0 0 32 32">
<path d="M0 0h32v32h-32v-32z"></path>
</symbol>
<symbol id="abercrombie" viewBox="0 0 38 32">
<path d="M0.157 0.247h37.35v31.514h-37.35v-31.514z"></path>
</symbol>
<symbol id="aeropostale" viewBox="0 0 38 32">
<path d="M0.12 0h38.202v32h-38.202v-32z"></path>
</symbol>
<symbol id="forever" viewBox="0 0 39 32">
<path d="M0.132 0h38.291v32h-38.291v-32z"></path>
</symbol>
<symbol id="hollister" viewBox="0 0 38 32">
<path d="M0.135 0h37.508v32h-37.508v-32z"></path>
</symbol>
<symbol id="nike" viewBox="0 0 38 32">
<path d="M0.134 0h37.724v32h-37.724v-32z"></path>
</symbol>
<symbol id="moon" viewBox="0 0 32 32">
<path d="M16.156 15.845c-2.033-2.034-3.417-4.624-3.978-7.444s-0.274-5.743 0.826-8.4c-3.136 0.617-6.016 2.156-8.272 4.419-6.309 6.309-6.309 16.54 0 22.849 6.311 6.311 16.539 6.309 22.85 0 2.262-2.256 3.801-5.136 4.419-8.271-2.657 1.1-5.58 1.387-8.4 0.826s-5.411-1.945-7.444-3.978z"></path>
</symbol>
<symbol id="sun" viewBox="0 0 32 32">
<path d="M7.77 15.556c0 4.295 3.494 7.789 7.789 7.789s7.789-3.494 7.789-7.789c0-4.295-3.494-7.789-7.789-7.789s-7.789 3.494-7.789 7.789zM14 26.444h3.111v4.667h-3.111v-4.667zM14 0h3.111v4.667h-3.111v-4.667zM0 14h4.667v3.111h-4.667v-3.111zM26.444 14h4.667v3.111h-4.667v-3.111zM5.658 27.655l-2.2-2.2 3.299-3.299 2.2 2.2-3.299 3.299zM22.154 6.757l3.301-3.301 2.2 2.2-3.301 3.301-2.2-2.2zM6.757 8.958l-3.299-3.301 2.201-2.2 3.298 3.301-2.2 2.2zM27.655 25.455l-2.2 2.2-3.301-3.301 2.2-2.2 3.301 3.301z"></path>
</symbol>
<symbol id="arrow_ios_forward" viewBox="0 0 32 32">
<path d="M18.375 25.343c0.304 0.001 0.598-0.105 0.832-0.299 0.132-0.109 0.24-0.243 0.32-0.394s0.129-0.317 0.145-0.487c0.016-0.17-0.002-0.342-0.053-0.505s-0.133-0.315-0.243-0.446l-5.823-6.967 5.615-6.98c0.108-0.133 0.189-0.286 0.237-0.45s0.064-0.336 0.046-0.507c-0.018-0.17-0.070-0.335-0.152-0.486s-0.193-0.283-0.327-0.39c-0.134-0.118-0.292-0.208-0.463-0.262s-0.351-0.073-0.529-0.055-0.351 0.073-0.507 0.161c-0.156 0.088-0.292 0.208-0.4 0.351l-6.278 7.799c-0.191 0.233-0.296 0.524-0.296 0.825s0.104 0.593 0.296 0.825l6.499 7.799c0.13 0.157 0.296 0.282 0.483 0.363s0.391 0.117 0.595 0.105z"></path>
</symbol>
<symbol id="arrow_right-in_square" viewBox="0 0 32 32">
<path d="M13.992 24.020c-0.418-0.002-0.83-0.093-1.21-0.266-0.411-0.181-0.762-0.477-1.009-0.852s-0.382-0.813-0.387-1.263v-11.199c0.005-0.449 0.14-0.888 0.387-1.263s0.598-0.671 1.009-0.852c0.473-0.223 0.999-0.31 1.519-0.248s1.012 0.267 1.42 0.594l6.783 5.599c0.266 0.212 0.481 0.481 0.628 0.787s0.224 0.642 0.224 0.982c0 0.34-0.077 0.676-0.224 0.982s-0.362 0.575-0.628 0.787l-6.783 5.599c-0.489 0.397-1.099 0.613-1.729 0.612v0z"></path>
</symbol>
<symbol id="arrow_top" viewBox="0 0 53 32">
<path d="M26.667 0l26.173 32h-52.346l26.173-32z"></path>
</symbol>
<symbol id="square_big" viewBox="0 0 32 32">
<path stroke-linejoin="miter" stroke-linecap="butt" stroke-miterlimit="4" stroke-width="0.8312" d="M0.416 0.416h31.169v31.169h-31.169v-31.169z"></path>
<path d="M14.801 20.997c-0.206-0.001-0.41-0.046-0.597-0.131-0.203-0.089-0.376-0.235-0.498-0.42s-0.189-0.401-0.191-0.623v-5.527c0.003-0.222 0.069-0.438 0.191-0.623s0.295-0.331 0.498-0.421c0.233-0.11 0.493-0.153 0.75-0.123s0.499 0.132 0.701 0.293l3.347 2.763c0.131 0.105 0.237 0.237 0.31 0.388s0.111 0.317 0.111 0.485c0 0.168-0.038 0.333-0.111 0.485s-0.179 0.284-0.31 0.388l-3.348 2.763c-0.241 0.196-0.543 0.302-0.853 0.302v0z"></path>
</symbol>
</defs>
</svg>
