<?xml version="1.0" standalone="no"?>
<!DOCTYPE svg PUBLIC "-//W3C//DTD SVG 20010904//EN"
 "http://www.w3.org/TR/2001/REC-SVG-20010904/DTD/svg10.dtd">
<svg version="1.0" xmlns="http://www.w3.org/2000/svg"
 width="779.000000pt" height="779.000000pt" viewBox="0 0 779.000000 779.000000"
 preserveAspectRatio="xMidYMid meet">
<metadata>
Created by potrace 1.14, written by Peter Selinger 2001-2017
</metadata>
<g transform="translate(0.000000,779.000000) scale(0.100000,-0.100000)"
fill="#000000" stroke="none">
<path d="M3800 7724 c-53 -17 -88 -21 -235 -29 -60 -3 -125 -8 -144 -10 -37
-6 -64 -22 -56 -35 3 -5 1 -11 -3 -14 -5 -3 -15 -26 -22 -50 -8 -30 -18 -45
-29 -45 -35 1 -137 -10 -161 -16 -14 -3 -32 -8 -40 -10 -8 -2 -16 -4 -17 -5
-2 -2 -7 -3 -13 -4 -5 0 -15 -7 -21 -13 -7 -7 -19 -13 -26 -13 -26 0 -81 -65
-93 -110 -8 -30 -28 -62 -61 -97 -27 -28 -49 -57 -49 -62 0 -6 -9 -11 -19 -11
-25 0 -37 -18 -17 -26 8 -3 25 -22 39 -42 14 -20 39 -52 56 -71 39 -44 40 -73
1 -176 -16 -44 -30 -87 -30 -95 0 -8 -11 -20 -25 -27 -20 -9 -25 -8 -25 3 0
12 -3 12 -23 0 -20 -14 -25 -13 -52 4 -39 26 -49 25 -80 -6 -15 -15 -30 -22
-37 -18 -19 12 -43 14 -161 15 -140 1 -157 -9 -227 -132 -50 -88 -153 -203
-239 -267 -17 -13 -43 -44 -57 -69 -28 -47 -85 -199 -77 -207 2 -2 -6 -7 -18
-11 -21 -7 -57 -35 -45 -35 3 0 -3 -19 -13 -42 -10 -24 -31 -97 -46 -163 -21
-91 -36 -131 -61 -167 -45 -63 -68 -112 -88 -184 -19 -70 -42 -117 -109 -221
-44 -67 -65 -109 -72 -143 -2 -8 -8 -33 -14 -55 -23 -89 -40 -423 -26 -520 30
-208 108 -332 249 -399 131 -62 255 -39 402 74 98 76 175 150 168 161 -2 4 -1
9 3 11 5 1 19 24 33 51 13 26 27 47 30 48 56 9 55 9 79 -40 15 -33 21 -56 16
-71 -4 -13 -9 -50 -10 -82 -2 -33 -6 -63 -10 -66 -10 -10 -25 20 -26 53 0 29
-1 29 -11 7 -10 -19 -7 -32 14 -75 19 -38 28 -74 32 -137 3 -47 8 -94 10 -105
2 -11 7 -41 10 -68 4 -26 11 -47 16 -47 4 0 11 -17 14 -37 25 -148 25 -204 1
-393 -14 -119 -16 -202 -6 -246 7 -27 14 -99 17 -159 2 -61 6 -128 8 -150 1
-22 -1 -52 -5 -68 -4 -15 -11 -51 -14 -80 -4 -28 -8 -54 -10 -57 -1 -3 -6 -41
-10 -84 -4 -44 -10 -101 -14 -128 -5 -27 -9 -86 -10 -131 -7 -368 -12 -549
-15 -587 -13 -122 -29 -821 -28 -1215 0 -336 0 -330 17 -394 16 -56 17 -56 58
-60 39 -3 172 -3 417 0 52 0 100 0 105 -1 6 -1 15 -1 20 0 6 1 46 1 90 0 148
-3 240 -2 295 4 30 3 81 9 112 11 31 3 66 8 79 10 12 2 46 7 76 10 30 2 57 6
61 9 4 2 30 6 57 10 62 7 103 14 135 23 14 3 34 7 45 9 11 1 54 9 95 19 41 9
86 18 100 20 40 6 171 32 180 35 3 1 8 2 11 2 4 -1 58 8 120 19 63 11 129 20
147 21 l32 0 -4 57 c-3 31 -14 85 -26 121 -11 36 -32 108 -46 160 -28 105 -48
178 -70 260 -9 30 -17 62 -19 70 -2 8 -9 29 -16 45 -7 17 -13 32 -14 35 -1 3
-9 23 -19 45 -17 39 -38 130 -50 210 -3 22 -8 51 -11 65 -2 14 -7 36 -10 50
-3 14 -7 41 -10 60 -3 19 -9 58 -15 85 -6 28 -13 64 -16 80 -2 17 -7 37 -9 45
-3 8 -7 33 -11 55 -3 22 -7 50 -9 62 -2 13 -6 41 -10 63 -4 22 -5 40 -2 40 3
0 31 -30 62 -67 131 -154 203 -227 255 -260 30 -20 69 -50 85 -67 17 -17 47
-44 68 -59 20 -15 37 -36 37 -46 0 -20 28 -93 39 -101 14 -10 119 -148 167
-219 27 -40 60 -79 74 -86 48 -25 145 -48 212 -50 66 -2 69 -3 92 -38 38 -55
104 -113 162 -141 29 -14 55 -30 59 -35 3 -6 23 -3 49 6 41 15 43 18 33 40 -5
12 -18 25 -27 28 -10 3 -25 14 -34 23 -15 17 -13 23 29 83 54 79 78 164 76
274 -1 125 2 120 -71 122 -56 3 -68 7 -107 39 -26 21 -42 42 -39 50 3 7 2 16
-3 18 -14 9 -4 91 35 281 10 44 18 89 20 100 1 11 3 20 4 20 2 0 7 19 14 56 3
15 15 71 27 125 28 134 39 183 44 219 12 73 17 85 28 78 7 -4 14 -8 17 -8 122
-19 169 -21 280 -11 80 7 85 8 245 47 72 17 134 35 139 40 5 4 11 68 14 141 2
73 9 136 15 139 5 4 11 33 13 65 2 33 6 91 8 131 5 70 4 73 -21 85 -25 13 -26
17 -29 110 -1 53 -5 112 -8 130 -13 79 -28 148 -47 218 -11 41 -22 83 -24 92
-2 9 -8 25 -13 35 -10 18 -31 119 -37 178 -6 54 -36 188 -61 272 -13 44 -31
119 -39 165 -9 45 -20 97 -25 113 -5 17 -11 41 -14 55 -2 14 -19 72 -36 130
-18 58 -34 125 -36 150 -6 75 -15 144 -20 160 -3 8 -8 33 -11 55 -3 21 -11 56
-19 77 -7 21 -11 38 -8 38 2 0 0 10 -7 21 -6 12 -13 36 -16 53 -21 152 -83
384 -133 501 -4 11 -18 47 -31 80 -12 33 -49 120 -81 194 -33 74 -65 157 -73
185 -30 110 -38 133 -72 201 -20 39 -52 95 -72 125 -46 70 -72 127 -65 145 3
8 2 20 -2 27 -8 13 -10 18 -12 51 -3 30 -21 18 -28 -18 -3 -20 -12 -35 -20
-35 -8 0 -14 3 -14 8 0 4 -17 18 -38 32 -20 14 -39 27 -42 30 -16 17 -181 98
-210 104 -8 2 -24 6 -35 10 -11 5 -38 15 -60 23 -22 8 -56 24 -75 36 -19 12
-38 21 -42 20 -3 -1 -8 3 -11 10 -5 13 12 14 73 4 19 -4 76 -8 125 -11 50 -3
108 -10 130 -16 80 -24 170 -86 206 -145 22 -35 25 -19 6 28 -47 112 -200 198
-395 222 -89 11 -119 18 -149 35 l-32 19 -24 -29 c-26 -30 -71 -40 -115 -25
-21 7 -23 12 -17 44 4 20 9 52 11 71 3 32 16 102 25 140 2 8 25 31 50 50 75
58 109 88 109 98 0 5 6 15 14 21 17 15 56 95 56 117 0 8 -20 34 -44 58 -39 37
-45 48 -51 101 -4 33 -14 72 -21 87 -20 39 -165 105 -269 122 -11 2 -40 8 -65
14 -42 10 -62 13 -157 28 -21 3 -49 7 -63 10 -69 13 -277 12 -320 -2z m-1314
-1000 c60 -32 141 -39 196 -17 44 18 60 13 26 -9 -30 -19 -230 -99 -341 -137
l-89 -30 7 27 c9 38 52 126 73 149 19 22 51 42 68 43 6 0 33 -12 60 -26z
m2497 -2372 c9 -9 19 -33 22 -52 3 -19 13 -54 22 -77 14 -39 14 -46 -1 -84
-13 -31 -14 -44 -5 -55 6 -8 11 -42 11 -76 0 -57 23 -161 51 -228 6 -14 11
-27 12 -30 0 -3 9 -21 20 -40 11 -20 19 -58 20 -90 1 -30 12 -93 24 -140 13
-47 25 -103 27 -125 3 -22 9 -51 14 -65 4 -14 14 -56 21 -95 6 -38 13 -77 15
-85 2 -8 12 -55 23 -103 12 -57 26 -96 40 -111 12 -13 21 -27 19 -32 -1 -5 3
-22 9 -39 7 -16 17 -50 24 -75 6 -25 12 -47 13 -50 0 -3 -30 -5 -69 -6 -38 0
-99 -4 -135 -9 -79 -11 -143 -9 -168 4 -11 6 -19 23 -20 43 -1 19 -5 45 -8 58
-3 14 -8 48 -11 75 -2 28 -13 62 -24 77 -17 25 -18 30 -5 50 46 74 49 178 9
298 -8 25 -17 56 -19 70 -13 77 -26 125 -41 153 -9 18 -18 34 -18 37 -1 3 -11
21 -23 40 -12 19 -22 43 -22 53 0 10 -12 41 -26 69 -18 36 -22 53 -14 58 6 4
12 39 14 81 1 41 9 85 16 99 20 36 37 148 30 198 -4 24 -2 46 3 49 5 3 20 29
33 58 14 34 34 60 53 71 17 10 31 24 31 31 0 18 14 16 33 -5z"/>
</g>
</svg>
